<svg xmlns="http://www.w3.org/2000/svg" viewBox="0 0 100 100" width="100" height="100">
  <defs>
    <radialGradient id="bg" cx="50%" cy="30%" r="70%">
      <stop offset="0%" stop-color="#18183A"/>
      <stop offset="100%" stop-color="#080812"/>
    </radialGradient>
    <radialGradient id="aura" cx="50%" cy="50%" r="50%">
      <stop offset="0%" stop-color="#6366F1" stop-opacity="0.65"/>
      <stop offset="100%" stop-color="#4F46E5" stop-opacity="0"/>
    </radialGradient>
    <linearGradient id="flap" x1="50%" y1="0%" x2="50%" y2="100%">
      <stop offset="0%" stop-color="#A5B4FC"/>
      <stop offset="100%" stop-color="#3730A3"/>
    </linearGradient>
    <linearGradient id="body" x1="25%" y1="0%" x2="75%" y2="100%">
      <stop offset="0%" stop-color="#FFFFFF"/>
      <stop offset="100%" stop-color="#D8DCF0"/>
    </linearGradient>
    <linearGradient id="letter" x1="0%" y1="0%" x2="0%" y2="100%">
      <stop offset="0%" stop-color="#FFFFFF"/>
      <stop offset="100%" stop-color="#EAEBF8"/>
    </linearGradient>
    <filter id="glow" x="-80%" y="-80%" width="260%" height="260%">
      <feGaussianBlur in="SourceGraphic" stdDeviation="10"/>
    </filter>
    <filter id="shadow" x="-20%" y="-20%" width="140%" height="140%">
      <feDropShadow dx="0" dy="1.5" stdDeviation="2.5" flood-color="#000" flood-opacity="0.22"/>
    </filter>
  </defs>
  <rect width="100" height="100" rx="22" fill="url(#bg)"/>
  <ellipse cx="50" cy="44" rx="26" ry="17" fill="url(#aura)" filter="url(#glow)"/>
  <path d="M17 54 L50 30 L83 54 Z" fill="url(#flap)"/>
  <path d="M17 54 L50 30 L83 54" fill="none" stroke="rgba(255,255,255,0.32)" stroke-width="0.8" stroke-linejoin="round"/>
  <rect x="28" y="38" width="44" height="26" rx="1.5" fill="url(#letter)" filter="url(#shadow)"/>
  <path d="M66 38 L72 38 L72 44 Z" fill="#C4C7E0" opacity="0.85"/>
  <rect x="17" y="54" width="66" height="33" rx="2" fill="url(#body)"/>
  <line x1="17" y1="54" x2="50" y2="71" stroke="#BEC2DC" stroke-width="1.1"/>
  <line x1="83" y1="54" x2="50" y2="71" stroke="#BEC2DC" stroke-width="1.1"/>
  <line x1="17" y1="87" x2="50" y2="75" stroke="#BEC2DC" stroke-width="0.8" opacity="0.75"/>
  <line x1="83" y1="87" x2="50" y2="75" stroke="#BEC2DC" stroke-width="0.8" opacity="0.75"/>
  <rect x="17" y="54" width="66" height="33" rx="2" fill="none" stroke="rgba(255,255,255,0.16)" stroke-width="0.6"/>
</svg>
